<svg width="100" height="100" viewBox="0 0 100 100" fill="none" xmlns="http://www.w3.org/2000/svg">
<path d="M16.4844 21.875H15.664C12.2168 21.875 9.41406 24.6778 9.41406 28.125V33.623C9.50195 33.4083 9.58984 33.1836 9.6875 32.9688C11.3965 28.9257 13.6816 25.2149 16.4844 21.875ZM9.42383 66.377V71.875C9.42383 75.3222 12.2266 78.125 15.6739 78.125H16.4941C13.6816 74.7851 11.4063 71.0645 9.69726 67.0215C9.59961 66.8164 9.51171 66.5917 9.42383 66.377Z" fill="#081D34"/>
<path d="M84.3261 21.875H25.2246C17.4316 28.75 12.5 38.8086 12.5 50C12.5 61.1914 17.4316 71.25 25.2246 78.125H84.3164C87.7636 78.125 90.5664 75.3222 90.5664 71.875V28.125C90.5761 24.668 87.7833 21.875 84.3261 21.875Z" fill="#0057FF"/>
<path d="M12.2168 28.291L50 65.7813L87.3633 28.1348L50 53.1153L12.2168 28.291ZM70.1074 81.6601C68.6524 82.5879 68.2226 84.5215 69.1504 85.9766C69.7461 86.9141 70.752 87.4219 71.7871 87.4219C72.3632 87.4219 72.9395 87.2656 73.4667 86.9336C77.2461 84.5313 80.6347 81.543 83.5059 78.125H74.8145C73.3496 79.414 71.7774 80.5958 70.1074 81.6601ZM90.5761 33.6035V66.3671C92.6563 61.1914 93.75 55.625 93.75 50C93.75 44.2969 92.666 38.7598 90.5761 33.6035Z" fill="#081D34"/>
<path d="M75.6152 14.5312C71.9042 11.8457 67.8125 9.76563 63.4765 8.36914C59.1309 6.96289 54.5996 6.25 50 6.25C44.0918 6.25 38.3691 7.40234 32.9688 9.6875C27.7539 11.8945 23.0761 15.0489 19.0625 19.0625C18.164 19.9609 17.3048 20.8984 16.4844 21.8652C13.6719 25.2051 11.3965 28.9257 9.6875 32.9688C9.59961 33.1836 9.50195 33.3984 9.41406 33.623C7.31445 38.8281 6.25 44.336 6.25 50C6.25 55.664 7.31445 61.1719 9.42383 66.377C9.51171 66.5917 9.59961 66.8164 9.69726 67.0312C11.4063 71.0743 13.6816 74.7949 16.4941 78.1348C17.3046 79.1015 18.1641 80.039 19.0723 80.9375C23.086 84.9511 27.7636 88.1055 32.9785 90.3125C38.3691 92.5976 44.0918 93.75 50 93.75C52.2559 93.75 54.5215 93.5743 56.7383 93.2324C58.4473 92.9688 59.6094 91.377 59.3457 89.668C59.082 87.959 57.4805 86.7969 55.7812 87.0605C53.877 87.3535 51.9336 87.5 50 87.5C40.5176 87.5 31.8359 83.9551 25.2246 78.125C17.4316 71.25 12.5 61.1914 12.5 50C12.5 38.8086 17.4316 28.75 25.2246 21.875C31.8359 16.0449 40.5079 12.5 50 12.5C53.9454 12.5 57.832 13.1055 61.5527 14.3164C66.582 15.9375 71.0645 18.5449 74.8438 21.875H83.5059C81.1914 19.1114 78.5449 16.6504 75.6152 14.5312Z" fill="#081D34"/>
<path d="M9.42383 28.125V33.623C9.51172 33.4082 9.59962 33.1836 9.69727 32.9687C11.4063 28.9257 13.6816 25.2051 16.4941 21.8652H15.6739C12.2168 21.875 9.42383 24.668 9.42383 28.125ZM15.6739 78.125H16.4941C13.6816 74.7851 11.4063 71.0645 9.69727 67.0215C9.60938 66.8066 9.51172 66.5917 9.42383 66.3671V71.875C9.42383 75.332 12.2168 78.125 15.6739 78.125ZM17.3145 31.6406L50 53.1152L67.8614 41.1719C66.377 33.9257 63.0958 27.3242 58.5059 21.8652H25.2246C22.0703 24.6485 19.3945 27.9492 17.3145 31.6406Z" fill="#387CFE"/>
<path d="M68.6524 46.9923L50 65.7813L16.709 32.7539C14.0235 37.9199 12.5 43.7793 12.5 50C12.5 61.1914 17.4316 71.25 25.2246 78.125H58.5059C64.9024 70.5274 68.75 60.7129 68.75 50C68.75 48.9942 68.711 47.9883 68.6524 46.9923Z" fill="#387CFE"/>
<path d="M17.3145 31.6406C17.1094 32.0118 16.9042 32.3828 16.709 32.7539L50 65.7812L68.6524 46.9922C68.5156 45.0097 68.252 43.0664 67.8614 41.1719L50 53.1152L17.3145 31.6406Z" fill="#081D34"/>
<path d="M12.5 50C12.5 43.7793 14.0235 37.9199 16.709 32.7539C16.9042 32.3828 17.0996 32.0118 17.3145 31.6406C19.3945 27.959 22.0801 24.6484 25.2344 21.875C31.2989 16.5234 39.1016 13.1055 47.6758 12.5781C44.4936 10.6463 41.0773 9.13003 37.5098 8.06641C35.9766 8.52539 34.4629 9.06251 32.9785 9.69727C27.7636 11.9043 23.086 15.0586 19.0723 19.0723C18.1739 19.9708 17.3145 20.9083 16.4941 21.875C13.6816 25.2149 11.4063 28.9355 9.69726 32.9785C9.60938 33.1934 9.51171 33.4083 9.42383 33.6328C7.31445 38.8281 6.25 44.3359 6.25 50C6.25 55.664 7.31445 61.1719 9.42383 66.377C9.51171 66.5917 9.59961 66.8164 9.69726 67.0313C11.4063 71.0743 13.6816 74.7949 16.4941 78.1347C17.3046 79.1015 18.1641 80.0391 19.0723 80.9375C23.086 84.9511 27.7636 88.1055 32.9785 90.3125C34.4629 90.9375 35.9766 91.4844 37.5098 91.9434C41.1133 90.8691 44.5313 89.3457 47.6758 87.4316C39.1016 86.9042 31.2989 83.4864 25.2344 78.1347C17.4316 71.25 12.5 61.1914 12.5 50Z" fill="#081D34"/>
</svg>
