<svg width="800" height="800" viewBox="0 0 800 800" fill="none" xmlns="http://www.w3.org/2000/svg">
<path d="M131.875 175H125.312C97.7344 175 75.3125 197.422 75.3125 225V268.984C76.0156 267.266 76.7187 265.469 77.5 263.75C91.1719 231.406 109.453 201.719 131.875 175ZM75.3906 531.016V575C75.3906 602.578 97.8125 625 125.391 625H131.953C109.453 598.281 91.25 568.516 77.5781 536.172C76.7969 534.531 76.0937 532.734 75.3906 531.016Z" fill="#FFEA00"/>
<path d="M674.609 175H201.797C139.453 230 100 310.469 100 400C100 489.531 139.453 570 201.797 625H674.531C702.109 625 724.531 602.578 724.531 575V225C724.609 197.344 702.266 175 674.609 175Z" fill="#0057FF"/>
<path d="M97.7344 226.328L400 526.25L698.906 225.078L400 424.922L97.7344 226.328ZM560.859 653.281C549.219 660.703 545.781 676.172 553.203 687.813C557.969 695.313 566.016 699.375 574.297 699.375C578.906 699.375 583.516 698.125 587.734 695.469C617.969 676.25 645.078 652.344 668.047 625H598.516C586.797 635.312 574.219 644.766 560.859 653.281ZM724.609 268.828V530.937C741.25 489.531 750 445 750 400C750 354.375 741.328 310.078 724.609 268.828Z" fill="#FFEA00"/>
<path d="M604.922 116.25C575.234 94.7656 542.5 78.125 507.812 66.9531C473.047 55.7031 436.797 50 400 50C352.734 50 306.953 59.2187 263.75 77.5C222.031 95.1562 184.609 120.391 152.5 152.5C145.312 159.687 138.438 167.187 131.875 174.922C109.375 201.641 91.1719 231.406 77.5 263.75C76.7969 265.469 76.0156 267.187 75.3125 268.984C58.5156 310.625 50 354.688 50 400C50 445.312 58.5156 489.375 75.3906 531.016C76.0937 532.734 76.7969 534.531 77.5781 536.25C91.25 568.594 109.453 598.359 131.953 625.078C138.437 632.812 145.313 640.312 152.578 647.5C184.688 679.609 222.109 704.844 263.828 722.5C306.953 740.781 352.734 750 400 750C418.047 750 436.172 748.594 453.906 745.859C467.578 743.75 476.875 731.016 474.766 717.344C472.656 703.672 459.844 694.375 446.25 696.484C431.016 698.828 415.469 700 400 700C324.141 700 254.687 671.641 201.797 625C139.453 570 100 489.531 100 400C100 310.469 139.453 230 201.797 175C254.687 128.359 324.063 100 400 100C431.563 100 462.656 104.844 492.422 114.531C532.656 127.5 568.516 148.359 598.75 175H668.047C649.531 152.891 628.359 133.203 604.922 116.25Z" fill="#FFEA00"/>
<path d="M75.3906 225V268.984C76.0937 267.266 76.7969 265.469 77.5781 263.75C91.25 231.406 109.453 201.641 131.953 174.922H125.391C97.7344 175 75.3906 197.344 75.3906 225ZM125.391 625H131.953C109.453 598.281 91.25 568.516 77.5781 536.172C76.875 534.453 76.0937 532.734 75.3906 530.937V575C75.3906 602.656 97.7344 625 125.391 625ZM138.516 253.125L400 424.922L542.891 329.375C531.016 271.406 504.766 218.594 468.047 174.922H201.797C176.562 197.188 155.156 223.594 138.516 253.125Z" fill="#387CFE"/>
<path d="M549.219 375.938L400 526.25L133.672 262.031C112.188 303.359 100 350.234 100 400C100 489.531 139.453 570 201.797 625H468.047C519.219 564.219 550 485.703 550 400C550 391.953 549.688 383.906 549.219 375.938Z" fill="#387CFE"/>
<path d="M138.516 253.125C136.875 256.094 135.234 259.062 133.672 262.031L400 526.25L549.219 375.938C548.125 360.078 546.016 344.531 542.891 329.375L400 424.922L138.516 253.125Z" fill="#FFFF00"/>
<path d="M100 400C100 350.234 112.188 303.359 133.672 262.031C135.234 259.062 136.797 256.094 138.516 253.125C155.156 223.672 176.641 197.187 201.875 175C250.391 132.187 312.813 104.844 381.406 100.625C355.949 85.1702 328.618 73.0402 300.078 64.5312C287.813 68.2031 275.703 72.5 263.828 77.5781C222.109 95.2344 184.688 120.469 152.578 152.578C145.391 159.766 138.516 167.266 131.953 175C109.453 201.719 91.25 231.484 77.5781 263.828C76.875 265.547 76.0937 267.266 75.3906 269.062C58.5156 310.625 50 354.687 50 400C50 445.312 58.5156 489.375 75.3906 531.016C76.0937 532.734 76.7969 534.531 77.5781 536.25C91.25 568.594 109.453 598.359 131.953 625.078C138.437 632.812 145.313 640.313 152.578 647.5C184.688 679.609 222.109 704.844 263.828 722.5C275.703 727.5 287.813 731.875 300.078 735.547C328.906 726.953 356.25 714.766 381.406 699.453C312.813 695.234 250.391 667.891 201.875 625.078C139.453 570 100 489.531 100 400Z" fill="#FFFF00"/>
</svg>
